#!OML:ASF E:\Style4\Style4.ASF
:FULLY-SPECIFIED
:DEGREES
1884
root -0.393087 17.5674 -0.815328 6.81482 7.35966 2.85739
lowerback 13.8511 3.55199 -0.780555
upperback 7.29969 4.59669 -0.23772
thorax -0.103182 2.29097 -0.434584
lowerneck 2.26777 -5.15413 -5.91212
upperneck -5.24911 -6.83355 6.49149
head -1.61568 -3.45553 3.25523
rclavicle 1.55052e-014 -1.35174e-014
rhumerus -6.5366 9.28617 -83.9564
rradius 119.169
rwrist 16.9933
rhand 26.5351 -3.49499
rfingers 7.12502
rthumb 50.5667 -24.415
lclavicle 1.55052e-014 -1.35174e-014
lhumerus -8.87305 -13.3849 81.0666
lradius 121.033
lwrist -16.4921
lhand 23.6856 42.5042
lfingers 7.12502
lthumb 47.9517 64.7395
rfemur -24.6738 -5.3077 17.9991
rtibia 41.604
rfoot -21.4682 -20.4273
rtoes -8.95518
lfemur -25.3059 -2.32605 -19.1984
ltibia 37.4424
lfoot -17.6703 5.83183
ltoes -17.8514
1885
root -0.392616 17.6005 -0.807723 7.12796 7.40612 2.86983
lowerback 13.6664 3.57941 -0.935889
upperback 7.14175 4.61654 -0.183513
thorax -0.188045 2.29538 -0.289611
lowerneck 2.24115 -5.12617 -5.91456
upperneck -4.98309 -6.80432 6.44999
head -1.52755 -3.4398 3.23211
rclavicle 4.01545e-014 8.74653e-015
rhumerus -6.95831 9.51563 -83.9048
rradius 119.991
rwrist 17.0838
rhand 26.4252 -3.41323
rfingers 7.12502
rthumb 50.4663 -24.3876
lclavicle 4.01545e-014 8.74653e-015
lhumerus -9.41364 -13.3086 81.0689
lradius 121.776
lwrist -15.8832
lhand 22.9255 41.9557
lfingers 7.12502
lthumb 47.25 64.511
rfemur -24.5925 -5.12052 17.9903
rtibia 40.905
rfoot -21.3027 -20.5212
rtoes -8.31911
lfemur -25.2492 -2.56337 -19.1736
ltibia 36.7623
lfoot -17.3932 5.99757
ltoes -17.7515
1886
root -0.391109 17.6319 -0.799956 7.40481 7.4869 2.88113
lowerback 13.5226 3.55248 -1.07195
upperback 6.98736 4.5669 -0.141652
thorax -0.287837 2.26631 -0.161183
lowerneck 2.18734 -5.0848 -5.92556
upperneck -4.65556 -6.75823 6.39875
head -1.41604 -3.41502 3.20452
rclavicle -4.37326e-015 -1.11319e-014
rhumerus -7.30758 9.87987 -83.8775
rradius 120.753
rwrist 17.2224
rhand 26.1894 -3.35198
rfingers 7.12502
rthumb 50.2509 -24.442
lclavicle -4.37326e-015 -1.11319e-014
lhumerus -9.83017 -13.1823 80.995
lradius 122.491
lwrist -15.543
lhand 22.4891 41.7098
lfingers 7.12502
lthumb 46.8464 64.4433
rfemur -24.4851 -4.95738 17.9726
rtibia 40.2313
rfoot -21.0248 -20.7182
rtoes -8.46591
lfemur -25.1632 -2.79371 -19.1527
ltibia 36.113
lfoot -17.114 6.17357
ltoes -17.9227
1887
root -0.389466 17.6595 -0.79452 7.59529 7.57295 2.79514
lowerback 13.4431 3.50819 -1.03641
upperback 6.88103 4.51365 -0.110988
thorax -0.357003 2.24006 -0.141219
lowerneck 1.98719 -5.04385 -5.99291
upperneck -4.21455 -6.70716 6.44742
head -1.23748 -3.38702 3.21248
rclavicle -3.57812e-015 1.74931e-014
rhumerus -7.56431 10.1947 -83.8856
rradius 121.489
rwrist 17.373
rhand 26.0746 -3.3553
rfingers 7.12502
rthumb 50.1459 -24.5011
lclavicle -3.57812e-015 1.74931e-014
lhumerus -10.078 -13.1253 80.811
lradius 123.188
lwrist -15.3846
lhand 22.1057 41.3515
lfingers 7.12502
lthumb 46.4914 64.2386
rfemur -24.3289 -4.80886 18.0709
rtibia 39.5944
rfoot -20.5581 -21.0699
rtoes -9.46058
lfemur -25.0205 -2.98276 -19.0248
ltibia 35.4937
lfoot -16.8827 6.19245
ltoes -17.1703
1888
root -0.388568 17.6862 -0.790511 7.7808 7.67852 2.71501
lowerback 13.3252 3.4614 -0.981888
upperback 6.8087 4.4603 -0.0890127
thorax -0.367756 2.21437 -0.136973
lowerneck 1.75562 -5.0049 -6.01592
upperneck -3.74691 -6.65845 6.44503
head -1.04843 -3.35935 3.19404
rclavicle 0 4.77083e-015
rhumerus -7.72864 10.3849 -83.8554
rradius 122.196
rwrist 17.5058
rhand 26.0098 -3.37982
rfingers 7.12502
rthumb 50.0866 -24.5569
lclavicle 0 4.77083e-015
lhumerus -10.1873 -13.1803 80.577
lradius 123.913
lwrist -15.4198
lhand 21.6577 41.0341
lfingers 7.12502
lthumb 46.0761 64.0968
rfemur -24.1837 -4.71462 18.1636
rtibia 39.0053
rfoot -20.3882 -21.1528
rtoes -9.25169
lfemur -24.9378 -3.18695 -18.9044
ltibia 34.9398
lfoot -16.6283 6.25865
ltoes -16.687
1889
root -0.385617 17.7108 -0.788495 8.00714 7.83472 2.77036
lowerback 13.1973 3.39223 -1.01513
upperback 6.70349 4.36691 -0.104505
thorax -0.410788 2.16744 -0.118157
lowerneck 1.69469 -4.98466 -5.95591
upperneck -3.33291 -6.64293 6.30358
head -0.912493 -3.34935 3.12199
rclavicle 2.34566e-014 -2.62396e-014
rhumerus -7.89061 10.5471 -83.8201
rradius 122.852
rwrist 17.6373
rhand 25.919 -3.29542
rfingers 7.12502
rthumb 50.0036 -24.5163
lclavicle 2.34566e-014 -2.62396e-014
lhumerus -10.2503 -13.2209 80.382
lradius 124.674
lwrist -15.5409
lhand 21.2204 40.7708
lfingers 7.12502
lthumb 45.6703 64.0014
rfemur -24.1279 -4.73714 18.1094
rtibia 38.494
rfoot -20.2278 -21.2292
rtoes -9.00895
lfemur -24.9372 -3.4366 -18.9308
ltibia 34.4817
lfoot -16.4217 6.29688
ltoes -16.2535
1890
root -0.379506 17.73 -0.786802 8.22396 7.99615 2.78572
lowerback 13.0437 3.31591 -1.00017
upperback 6.61534 4.27051 -0.100477
thorax -0.420089 2.1198 -0.103462
lowerneck 1.6502 -4.97642 -5.97141
upperneck -2.94678 -6.6433 6.23051
head -0.783075 -3.34777 3.0888
rclavicle -2.46493e-014 4.77083e-015
rhumerus -8.0021 10.7548 -83.7594
rradius 123.455
rwrist 17.727
rhand 25.7233 -3.17619
rfingers 7.12502
rthumb 49.8244 -24.4906
lclavicle -2.46493e-014 4.77083e-015
lhumerus -10.1907 -13.2001 80.1806
lradius 125.398
lwrist -15.6996
lhand 20.794 40.4236
lfingers 7.12502
lthumb 45.274 63.8144
rfemur -24.1178 -4.84691 18.0942
rtibia 38.0748
rfoot -20.0107 -21.2716
rtoes -9.07942
lfemur -24.9924 -3.64207 -18.9328
ltibia 34.1369
lfoot -16.2173 6.38553
ltoes -16.1578
1891
root -0.37795 17.7431 -0.792498 8.38592 8.13955 2.68537
lowerback 12.9705 3.27553 -0.863665
upperback 6.55921 4.23411 -0.0692556
thorax -0.432543 2.10425 -0.139991
lowerneck 1.52796 -5.00903 -6.0027
upperneck -2.57004 -6.69339 6.20025
head -0.638081 -3.37057 3.07054
rclavicle -1.59028e-015 2.54444e-014
rhumerus -7.99794 10.8401 -83.5796
rradius 124.001
rwrist 17.6509
rhand 25.442 -3.10346
rfingers 7.12502
rthumb 49.5667 -24.5508
lclavicle -1.59028e-015 2.54444e-014
lhumerus -9.9838 -13.3676 79.9801
lradius 126.017
lwrist -15.8444
lhand 20.0953 40.2858
lfingers 7.12502
lthumb 44.6238 63.932
rfemur -24.1466 -4.886 18.2284
rtibia 37.7607
rfoot -19.7971 -21.356
rtoes -9.20711
lfemur -25.1185 -3.83368 -18.781
ltibia 33.9125
lfoot -16.0647 6.46053
ltoes -16.1386
1892
root -0.380657 17.7512 -0.80514 8.47058 8.29399 2.53074
lowerback 13.0451 3.22584 -0.706968
upperback 6.50894 4.18623 -0.00195592
thorax -0.519242 2.08273 -0.157638
lowerneck 1.40148 -5.01385 -6.0934
upperneck -2.21731 -6.70645 6.17307
head -0.500648 -3.3744 3.06532
rclavicle -6.0033e-014 -3.18055e-015
rhumerus -7.90373 10.9131 -83.3174
rradius 124.452
rwrist 17.4454
rhand 25.1671 -3.10547
rfingers 7.12502
rthumb 49.3146 -24.6808
lclavicle -6.0033e-014 -3.18055e-015
lhumerus -9.69931 -13.598 79.7825
lradius 126.589
lwrist -15.8416
lhand 19.0712 40.3131
lfingers 7.12502
lthumb 43.6689 64.3183
rfemur -24.1924 -4.87412 18.4422
rtibia 37.5559
rfoot -19.5578 -21.5044
rtoes -9.61016
lfemur -25.2936 -3.97276 -18.562
ltibia 33.8254
lfoot -15.8571 6.49167
ltoes -16.2972
